HIERARCHY
ROOT Hips
{
	OFFSET 0.000000 0.000000 0.000000
	CHANNELS 6 Xposition Yposition Zposition Xrotation Yrotation Zrotation
	JOINT LeftUpLeg_virtual
	{
		OFFSET 0.000000 0.000000 0.000000
		CHANNELS 3 Xrotation Yrotation Zrotation
		JOINT LeftUpLeg
		{
			OFFSET 11.394100 -6.187798 -0.413800
			CHANNELS 3 Xrotation Yrotation Zrotation
			JOINT LeftLeg
			{
				OFFSET 0.430247 -32.302673 3.732800
				CHANNELS 3 Xrotation Yrotation Zrotation
				JOINT LeftFoot
				{
					OFFSET -0.430247 -48.264931 -6.423300
					CHANNELS 3 Xrotation Yrotation Zrotation
					JOINT LeftToeBase
					{
						OFFSET 4.230900 -16.068199 23.438400
						CHANNELS 3 Xrotation Yrotation Zrotation
						JOINT LeftToe_End
						{
							OFFSET 4.510700 0.695400 19.974600
							CHANNELS 3 Xrotation Yrotation Zrotation
							End Site
							{
								OFFSET 0 0 0
							}
						}
					}
				}
			}
		}
	}
	JOINT RightUpLeg_virtual
	{
		OFFSET 0.000000 0.000000 0.000000
		CHANNELS 3 Xrotation Yrotation Zrotation
		JOINT RightUpLeg
		{
			OFFSET -11.333700 -6.187798 -0.413800
			CHANNELS 3 Xrotation Yrotation Zrotation
			JOINT RightLeg
			{
				OFFSET -0.430392 -32.302628 3.733000
				CHANNELS 3 Xrotation Yrotation Zrotation
				JOINT RightFoot
				{
					OFFSET 0.430392 -48.264973 -6.423500
					CHANNELS 3 Xrotation Yrotation Zrotation
					JOINT RightToeBase
					{
						OFFSET -4.230900 -16.068199 23.438400
						CHANNELS 3 Xrotation Yrotation Zrotation
						JOINT RightToe_End
						{
							OFFSET -4.510700 0.695400 19.974600
							CHANNELS 3 Xrotation Yrotation Zrotation
							End Site
							{
								OFFSET 0 0 0
							}
						}
					}
				}
			}
		}
	}
	JOINT Spine_virtual
	{
		OFFSET 0.000000 0.000000 0.000000
		CHANNELS 3 Xrotation Yrotation Zrotation
		JOINT Spine
		{
			OFFSET -0.002400 12.777504 0.315300
			CHANNELS 3 Xrotation Yrotation Zrotation
			JOINT Spine1
			{
				OFFSET -0.002067 5.816869 0.032633
				CHANNELS 3 Xrotation Yrotation Zrotation
				JOINT Spine1_split
				{
					OFFSET -0.002067 5.816869 0.032633
					CHANNELS 3 Xrotation Yrotation Zrotation
					JOINT Spine2
					{
						OFFSET -0.002067 5.816869 0.032633
						CHANNELS 3 Xrotation Yrotation Zrotation
						JOINT Neck_virtual
						{
							OFFSET 0.000000 0.000000 0.000000
							CHANNELS 3 Xrotation Yrotation Zrotation
							JOINT Neck
							{
								OFFSET -0.003700 21.199493 -0.826900
								CHANNELS 3 Xrotation Yrotation Zrotation
								JOINT Head
								{
									OFFSET 0.000000 20.442200 4.834800
									CHANNELS 3 Xrotation Yrotation Zrotation
									JOINT HeadTop_End
									{
										OFFSET 0.000000 34.668396 4.968400
										CHANNELS 3 Xrotation Yrotation Zrotation
										End Site
										{
											OFFSET 0 0 0
										}
									}
								}
							}
						}
						JOINT LeftShoulder_virtual
						{
							OFFSET 0.000000 0.000000 0.000000
							CHANNELS 3 Xrotation Yrotation Zrotation
							JOINT LeftShoulder
							{
								OFFSET 3.288150 8.794197 -1.372250
								CHANNELS 3 Xrotation Yrotation Zrotation
								JOINT LeftShoulder_split
								{
									OFFSET 3.288150 8.794197 -1.372250
									CHANNELS 3 Xrotation Yrotation Zrotation
									JOINT LeftArm
									{
										OFFSET 11.953299 -2.279007 -0.146200
										CHANNELS 3 Xrotation Yrotation Zrotation
										JOINT LeftForeArm
										{
											OFFSET 18.448900 0.000000 0.000000
											CHANNELS 3 Xrotation Yrotation Zrotation
											JOINT LeftHand
											{
												OFFSET 29.527798 0.000000 0.000000
												CHANNELS 3 Xrotation Yrotation Zrotation
												End Site
												{
													OFFSET 0 0 0
												}
											}
										}
									}
								}
							}
						}
						JOINT RightShoulder_virtual
						{
							OFFSET 0.000000 0.000000 0.000000
							CHANNELS 3 Xrotation Yrotation Zrotation
							JOINT RightShoulder
							{
								OFFSET -3.249400 8.794197 -1.372250
								CHANNELS 3 Xrotation Yrotation Zrotation
								JOINT RightShoulder_split
								{
									OFFSET -3.249400 8.794197 -1.372250
									CHANNELS 3 Xrotation Yrotation Zrotation
									JOINT RightArm
									{
										OFFSET -11.953299 -2.279007 -0.146200
										CHANNELS 3 Xrotation Yrotation Zrotation
										JOINT RightForeArm
										{
											OFFSET -18.448900 0.000000 0.000000
											CHANNELS 3 Xrotation Yrotation Zrotation
											JOINT RightHand
											{
												OFFSET -29.527802 0.000000 0.000000
												CHANNELS 3 Xrotation Yrotation Zrotation
												End Site
												{
													OFFSET 0 0 0
												}
											}
										}
									}
								}
							}
						}
					}
				}
			}
		}
	}
}
MOTION
Frames: 10
Frame Time: 0.03333333
29.309059 26.057167 -11.363224 0.000000 0.000000 0.000000 -82.743186 59.863015 5.501896 -84.356033 -6.566296 -4.912442 74.230858 39.820058 -24.261025 20.872233 -14.710573 17.606529 18.700626 8.082747 1.564672 0.000000 0.000000 0.000000 -80.991331 63.198388 4.586012 -17.845184 2.285923 5.506810 52.559819 -11.900084 3.428218 16.520213 -19.462383 1.160390 -5.701799 -12.912623 -46.422696 0.000000 0.000000 0.000000 -81.297618 61.483915 -1.063825 22.130339 -4.522674 -7.276560 0.521373 -4.466402 -3.028611 0.175738 0.876517 -0.170847 0.000000 0.000000 0.000000 1.432602 -0.666515 -1.184510 4.391526 3.761416 -11.821776 12.358372 -37.925640 -13.398198 0.000000 0.000000 0.000000 2.192386 -1.475731 -1.708840 -4.948160 14.820650 11.972361 14.304311 -12.574586 1.498233 -93.799336 32.323761 -40.008168 -9.366620 -37.003120 -4.999777 0.000000 0.000000 0.000000 0.623431 -3.380553 -1.695445 -14.891447 10.438683 -2.720777 12.436596 -3.078669 7.471669 -57.597148 61.935472 120.313304 -71.796032 71.615244 57.587278 0.000000 0.000000 0.000000 
29.309889 25.984913 -11.566479 0.000000 0.000000 0.000000 -82.612675 59.905130 5.428952 -84.402212 -6.808438 -5.115477 74.429664 39.508775 -24.050018 20.952628 -14.723726 17.560621 18.488603 8.068012 1.549103 0.000000 0.000000 0.000000 -81.024055 63.145714 4.507640 -18.008376 2.558119 5.723556 52.831134 -12.034597 3.466977 16.368062 -19.455032 1.181321 -5.421408 -13.004443 -46.195418 0.000000 0.000000 0.000000 -81.462088 61.384037 -0.986679 22.030731 -4.569392 -7.253342 0.527777 -4.634604 -3.011762 0.177613 0.892212 -0.178804 0.000000 0.000000 0.000000 1.384726 -0.831877 -1.087992 4.248632 3.806175 -12.039802 13.501430 -37.777848 -12.778465 0.000000 0.000000 0.000000 2.095068 -1.584348 -1.669871 -4.916812 15.073235 11.560519 14.106013 -12.126871 1.687416 -93.475968 31.974178 -40.435925 -9.471791 -37.104525 -5.348096 0.000000 0.000000 0.000000 0.544516 -3.516503 -1.663623 -14.928287 10.649694 -2.675819 12.967392 -3.143472 7.714271 -58.854934 62.073408 121.210204 -71.931311 71.756178 57.780101 0.000000 0.000000 0.000000 
29.279388 25.841595 -11.722500 0.000000 0.000000 0.000000 -82.548635 59.887884 5.408354 -84.596292 -6.850691 -5.176259 74.927230 38.827979 -23.856133 21.074475 -14.814644 17.728922 18.157233 8.033980 1.573847 0.000000 0.000000 0.000000 -80.886488 63.056272 4.307240 -18.400837 2.847520 5.911170 53.091675 -11.945679 3.446995 16.630303 -19.137444 1.854939 -5.285392 -12.893746 -46.690531 0.000000 0.000000 0.000000 -81.625371 61.338534 -0.871790 21.889675 -4.713446 -7.260361 0.525150 -4.870083 -2.937452 0.157846 0.909258 -0.199575 0.000000 0.000000 0.000000 1.284695 -1.092352 -0.951113 4.143612 3.990796 -12.481162 15.150809 -37.314963 -11.389948 0.000000 0.000000 0.000000 1.975627 -1.773186 -1.597391 -4.843107 15.300551 10.961937 13.916022 -11.865511 2.090698 -93.071627 31.478286 -40.834088 -9.542905 -36.831296 -5.827657 0.000000 0.000000 0.000000 0.491520 -3.730183 -1.586167 -14.910064 11.067672 -2.717567 13.470814 -3.321478 7.766298 -60.703272 62.530853 122.706930 -71.334209 71.957184 57.253227 0.000000 0.000000 0.000000 
29.202824 25.670029 -11.825970 0.000000 0.000000 0.000000 -82.620174 59.850339 5.515273 -84.863570 -6.644302 -5.064850 75.555047 37.922737 -23.688670 21.128161 -14.955403 18.143281 17.866726 7.975004 1.642383 0.000000 0.000000 0.000000 -80.673147 62.933226 4.057248 -18.924861 3.093787 6.030724 53.105257 -11.686946 3.319202 16.955893 -18.627471 2.879132 -4.975001 -12.719903 -47.758254 0.000000 0.000000 0.000000 -81.744442 61.384782 -0.721162 21.735726 -4.943966 -7.315309 0.523447 -5.159195 -2.812753 0.137569 0.927020 -0.205408 0.000000 0.000000 0.000000 1.167103 -1.423488 -0.791906 4.073903 4.277444 -13.056440 17.006812 -36.573385 -9.450285 0.000000 0.000000 0.000000 1.872310 -2.037256 -1.496832 -4.712538 15.442047 10.198299 13.747991 -11.742168 2.564172 -92.575803 30.815471 -40.924865 -9.670353 -36.568573 -6.439691 0.000000 0.000000 0.000000 0.456902 -4.010172 -1.469712 -14.802523 11.618854 -2.841779 13.725831 -3.618764 7.713339 -62.559451 63.126705 124.371174 -70.614976 72.272581 56.632708 0.000000 0.000000 0.000000 
29.094933 25.542896 -11.896519 0.000000 0.000000 0.000000 -82.782774 59.807233 5.676368 -85.104246 -6.226156 -4.804006 76.056226 36.928179 -23.493931 21.058790 -15.111257 18.715096 17.651171 7.896675 1.770095 0.000000 0.000000 0.000000 -80.459062 62.757711 3.763155 -19.445072 3.215642 6.062009 52.927696 -11.347133 3.123967 17.130454 -18.152179 3.862406 -4.167466 -12.655976 -49.150731 0.000000 0.000000 0.000000 -81.832394 61.475883 -0.577734 21.581246 -5.242673 -7.420389 0.540933 -5.476493 -2.644034 0.119557 0.933026 -0.209543 0.000000 0.000000 0.000000 1.067302 -1.788577 -0.622670 4.033770 4.623972 -13.647534 18.704816 -35.734068 -7.251652 0.000000 0.000000 0.000000 1.794814 -2.355761 -1.379169 -4.515973 15.390035 9.280939 13.762499 -11.505522 3.038822 -92.027244 29.910614 -40.603207 -9.881258 -36.592636 -7.140006 0.000000 0.000000 0.000000 0.430828 -4.336924 -1.324646 -14.582515 12.221515 -2.961054 13.574359 -3.814746 7.477476 -63.880191 63.669050 125.718251 -70.281219 72.716953 56.456127 0.000000 0.000000 0.000000 
28.942856 25.488094 -11.996861 0.000000 0.000000 0.000000 -82.920450 59.741984 5.772507 -85.291407 -5.696905 -4.457790 76.266411 35.978325 -23.255211 20.901395 -15.236754 19.363409 17.438822 7.811741 1.979156 0.000000 0.000000 0.000000 -80.299665 62.585003 3.496897 -19.944181 3.135310 5.994762 52.690422 -11.025755 2.941510 17.345139 -17.853607 4.751542 -3.230991 -12.616548 -50.753770 0.000000 0.000000 0.000000 -82.003087 61.628428 -0.337341 21.429073 -5.597308 -7.548693 0.575250 -5.800098 -2.460193 0.111616 0.919126 -0.213475 0.000000 0.000000 0.000000 1.029512 -2.142518 -0.467770 4.003149 4.956345 -14.161519 19.978814 -35.025722 -5.055780 0.000000 0.000000 0.000000 1.751879 -2.698319 -1.256026 -4.243411 15.055330 8.232676 13.914232 -11.068336 3.336758 -91.515485 28.758047 -39.833783 -10.060699 -36.911900 -7.760072 0.000000 0.000000 0.000000 0.391893 -4.673474 -1.166736 -14.254400 12.815192 -2.963481 13.286492 -3.752633 7.081742 -64.151411 63.932442 126.268819 -70.873369 73.308926 57.287563 0.000000 0.000000 0.000000 
28.744667 25.519646 -12.094955 0.000000 0.000000 0.000000 -83.121503 59.672344 5.826836 -85.440237 -5.166846 -4.089903 76.221489 35.138878 -22.996854 20.750545 -15.319494 19.999964 17.162437 7.722709 2.234835 0.000000 0.000000 0.000000 -80.382714 62.535347 3.437679 -20.461459 2.904230 5.823908 52.541114 -10.693444 2.794249 18.020817 -17.680652 5.859396 -3.040709 -12.263174 -52.544205 0.000000 0.000000 0.000000 -82.461905 61.867573 0.149841 21.273970 -5.978834 -7.676496 0.625559 -6.097852 -2.289696 0.114512 0.882909 -0.205979 0.000000 0.000000 0.000000 1.051222 -2.447656 -0.348350 4.032373 5.222010 -14.508133 20.702466 -34.593880 -3.052952 0.000000 0.000000 0.000000 1.749095 -3.019358 -1.133668 -3.902463 14.409595 7.152207 14.103949 -10.503896 3.356669 -91.042433 27.461954 -38.824243 -10.061834 -37.305216 -8.094782 0.000000 0.000000 0.000000 0.337209 -4.994739 -1.035650 -13.833844 13.394335 -2.710720 13.010576 -3.366609 6.672735 -63.058192 63.845248 125.687761 -72.704085 73.996658 59.484404 0.000000 0.000000 0.000000 
28.499264 25.624916 -12.207760 0.000000 0.000000 0.000000 -83.491864 59.697199 5.963908 -85.598704 -4.752674 -3.760203 76.098484 34.457577 -22.781063 20.702952 -15.310547 20.569236 16.902585 7.612947 2.409884 0.000000 0.000000 0.000000 -80.819190 62.719230 3.738021 -20.927001 2.652302 5.626169 52.591456 -10.324020 2.677422 19.089368 -17.598985 7.208839 -3.829296 -11.508477 -54.381222 0.000000 0.000000 0.000000 -83.356127 62.210148 0.928711 21.108985 -6.350819 -7.749502 0.680140 -6.326641 -2.161021 0.127887 0.846094 -0.204255 0.000000 0.000000 0.000000 1.130345 -2.668523 -0.273241 4.112305 5.351100 -14.661776 20.889480 -34.746791 -1.334397 0.000000 0.000000 0.000000 1.775626 -3.267965 -1.025339 -3.514921 13.501061 6.093618 14.317691 -9.878999 3.158745 -90.738455 26.174550 -38.003155 -9.512864 -37.189325 -7.839048 0.000000 0.000000 0.000000 0.290955 -5.255781 -0.965079 -13.345080 13.917010 -2.105663 12.777429 -2.699736 6.278015 -60.778206 63.404134 123.995336 -75.861115 74.704566 63.133884 0.000000 0.000000 0.000000 
28.217163 25.754395 -12.329117 0.000000 0.000000 0.000000 -84.138519 59.849642 6.320626 -85.787893 -4.592264 -3.574939 76.011399 33.983210 -22.624689 20.775578 -15.186196 21.077810 16.765130 7.476276 2.400710 0.000000 0.000000 0.000000 -81.505303 63.142708 4.380433 -21.205642 2.485681 5.487082 52.711923 -10.081557 2.614883 20.050068 -17.720832 8.421356 -4.999637 -10.609798 -55.996978 0.000000 0.000000 0.000000 -84.670242 62.660579 1.962807 20.935872 -6.674676 -7.728014 0.729471 -6.457087 -2.103010 0.135444 0.823639 -0.208960 0.000000 0.000000 0.000000 1.224350 -2.772277 -0.254718 4.238241 5.293084 -14.649678 20.725125 -35.553016 0.093939 0.000000 0.000000 0.000000 1.830059 -3.407655 -0.941631 -3.104540 12.435043 5.129426 14.643325 -9.492158 3.077332 -90.628011 25.208601 -37.546059 -8.216229 -36.390380 -6.774982 0.000000 0.000000 0.000000 0.280210 -5.416540 -0.972367 -12.806376 14.312713 -1.232524 12.497868 -1.902413 5.854961 -57.629564 62.657997 121.327273 -79.961790 75.297672 67.792783 0.000000 0.000000 0.000000 
27.945860 25.870083 -12.407280 0.000000 0.000000 0.000000 -85.117087 60.161085 6.979388 -85.946763 -4.725581 -3.607773 75.928454 33.724978 -22.467620 20.911148 -14.982114 21.507794 16.718695 7.317337 2.243654 0.000000 0.000000 0.000000 -82.445916 63.730576 5.389150 -21.207491 2.477418 5.442327 52.769697 -9.997466 2.603357 20.384486 -18.094701 9.188712 -5.944417 -9.844113 -57.203104 0.000000 0.000000 0.000000 -86.345216 63.153862 3.219146 20.763471 -6.906232 -7.599346 0.778559 -6.455900 -2.118592 0.135894 0.827382 -0.211646 0.000000 0.000000 0.000000 1.270227 -2.741928 -0.293167 4.403057 5.075740 -14.547417 20.341386 -37.001819 1.261495 0.000000 0.000000 0.000000 1.913585 -3.407283 -0.899080 -2.676672 11.330083 4.345132 14.938773 -9.259147 3.220617 -90.724221 24.649034 -37.638055 -6.253028 -34.755192 -4.978114 0.000000 0.000000 0.000000 0.314813 -5.448616 -1.052705 -12.227169 14.551539 -0.274304 12.146152 -1.116463 5.437658 -54.167242 61.720936 118.074751 -84.265902 75.668824 72.662407 0.000000 0.000000 0.000000 
